<mxfile host="app.diagrams.net" agent="Mozilla/5.0 (X11; Linux x86_64) AppleWebKit/537.36 (KHTML, like Gecko) Chrome/132.0.0.0 Safari/537.36" version="26.0.6">
  <diagram name="Page-1" id="JcQQW6TBbLV1lwCuV4gU">
    <mxGraphModel dx="478" dy="255" grid="1" gridSize="10" guides="1" tooltips="1" connect="1" arrows="1" fold="1" page="1" pageScale="1" pageWidth="827" pageHeight="1169" math="1" shadow="0">
      <root>
        <mxCell id="0" />
        <mxCell id="1" parent="0" />
        <mxCell id="vFjyM6nZVpoobg8umopo-4" value="" style="endArrow=classic;html=1;rounded=0;dashed=1;fillColor=#f8cecc;strokeColor=#b85450;" edge="1" parent="1">
          <mxGeometry width="50" height="50" relative="1" as="geometry">
            <mxPoint x="420" y="456" as="sourcePoint" />
            <mxPoint x="391" y="404" as="targetPoint" />
          </mxGeometry>
        </mxCell>
        <mxCell id="vFjyM6nZVpoobg8umopo-6" value="" style="endArrow=open;html=1;rounded=0;endFill=0;fillColor=#dae8fc;strokeColor=#6c8ebf;" edge="1" parent="1">
          <mxGeometry width="50" height="50" relative="1" as="geometry">
            <mxPoint x="485" y="418" as="sourcePoint" />
            <mxPoint x="450" y="390" as="targetPoint" />
          </mxGeometry>
        </mxCell>
        <mxCell id="vFjyM6nZVpoobg8umopo-7" value="" style="endArrow=open;html=1;rounded=0;endFill=0;fillColor=#dae8fc;strokeColor=#6c8ebf;" edge="1" parent="1">
          <mxGeometry width="50" height="50" relative="1" as="geometry">
            <mxPoint x="485" y="418" as="sourcePoint" />
            <mxPoint x="468" y="460" as="targetPoint" />
          </mxGeometry>
        </mxCell>
        <mxCell id="vFjyM6nZVpoobg8umopo-1" value="" style="endArrow=classic;html=1;rounded=0;" edge="1" parent="1">
          <mxGeometry width="50" height="50" relative="1" as="geometry">
            <mxPoint x="420" y="456" as="sourcePoint" />
            <mxPoint x="489" y="416" as="targetPoint" />
          </mxGeometry>
        </mxCell>
        <mxCell id="vFjyM6nZVpoobg8umopo-8" value="\(\vec{v}\)" style="text;html=1;align=center;verticalAlign=middle;whiteSpace=wrap;rounded=0;" vertex="1" parent="1">
          <mxGeometry x="440" y="427" width="20" height="10" as="geometry" />
        </mxCell>
        <mxCell id="vFjyM6nZVpoobg8umopo-11" value="\(\vec{v}&#39;\)" style="text;html=1;align=center;verticalAlign=middle;whiteSpace=wrap;rounded=0;" vertex="1" parent="1">
          <mxGeometry x="388" y="429" width="20" height="10" as="geometry" />
        </mxCell>
        <mxCell id="vFjyM6nZVpoobg8umopo-12" value="\(p\)" style="text;html=1;align=center;verticalAlign=middle;whiteSpace=wrap;rounded=0;" vertex="1" parent="1">
          <mxGeometry x="410" y="456" width="20" height="10" as="geometry" />
        </mxCell>
        <mxCell id="vFjyM6nZVpoobg8umopo-13" value="\(q\)" style="text;html=1;align=center;verticalAlign=middle;whiteSpace=wrap;rounded=0;" vertex="1" parent="1">
          <mxGeometry x="483" y="402" width="20" height="26" as="geometry" />
        </mxCell>
        <mxCell id="vFjyM6nZVpoobg8umopo-14" value="\(r_1\)" style="text;html=1;align=center;verticalAlign=middle;whiteSpace=wrap;rounded=0;" vertex="1" parent="1">
          <mxGeometry x="440" y="369" width="20" height="26" as="geometry" />
        </mxCell>
        <mxCell id="vFjyM6nZVpoobg8umopo-15" value="\(r_2\)" style="text;html=1;align=center;verticalAlign=middle;whiteSpace=wrap;rounded=0;" vertex="1" parent="1">
          <mxGeometry x="458" y="451" width="20" height="26" as="geometry" />
        </mxCell>
        <mxCell id="vFjyM6nZVpoobg8umopo-16" value="\(\vec{w}_1\)" style="text;html=1;align=center;verticalAlign=middle;whiteSpace=wrap;rounded=0;" vertex="1" parent="1">
          <mxGeometry x="467" y="394" width="20" height="10" as="geometry" />
        </mxCell>
        <mxCell id="vFjyM6nZVpoobg8umopo-17" value="\(\vec{w}_2\)" style="text;html=1;align=center;verticalAlign=middle;whiteSpace=wrap;rounded=0;" vertex="1" parent="1">
          <mxGeometry x="476" y="437" width="20" height="10" as="geometry" />
        </mxCell>
      </root>
    </mxGraphModel>
  </diagram>
</mxfile>
